<svg xmlns="http://www.w3.org/2000/svg" viewBox="0 0 1600 900" font-family="'Courier New', Courier, monospace">
  <!-- A flat lay, as painted in gouache: a till receipt on a counter, its total struck with a rubber stamp, the stamp and its ink pad beside it. -->
  <defs>
    <filter id="counter" x="0" y="0" width="100%" height="100%">
      <feTurbulence type="fractalNoise" baseFrequency="0.004 0.22" numOctaves="3" seed="8"/>
      <feColorMatrix type="matrix" values="0 0 0 0 1  0 0 0 0 0.95  0 0 0 0 1  0 0 0 0.5 -0.2"/>
    </filter>
    <filter id="grain" x="0" y="0" width="100%" height="100%">
      <feTurbulence type="fractalNoise" baseFrequency="0.8" numOctaves="3" seed="5"/>
      <feColorMatrix type="matrix" values="0 0 0 0 0.1  0 0 0 0 0.08  0 0 0 0 0.16  0 0 0 0.22 0"/>
    </filter>
    <!-- Thermal print: faint where the head skipped -->
    <filter id="thermal" x="-2%" y="-2%" width="104%" height="104%">
      <feTurbulence type="fractalNoise" baseFrequency="0.02 0.9" numOctaves="2" seed="14" result="n"/>
      <feColorMatrix in="n" type="matrix" values="0 0 0 0 0  0 0 0 0 0  0 0 0 0 0  4 0 0 0 -0.9" result="m"/>
      <feComposite in="SourceGraphic" in2="m" operator="in"/>
    </filter>
    <!-- A stamp never inks evenly -->
    <filter id="stamped" x="-5%" y="-5%" width="110%" height="110%">
      <feTurbulence type="fractalNoise" baseFrequency="0.55" numOctaves="2" seed="3" result="n"/>
      <feColorMatrix in="n" type="matrix" values="0 0 0 0 0  0 0 0 0 0  0 0 0 0 0  7 0 0 0 -2.2" result="m"/>
      <feTurbulence type="fractalNoise" baseFrequency="0.012" numOctaves="1" seed="9" result="b"/>
      <feColorMatrix in="b" type="matrix" values="0 0 0 0 0  0 0 0 0 0  0 0 0 0 0  3 0 0 0 -0.3" result="blot"/>
      <feComposite in="SourceGraphic" in2="m" operator="in" result="a"/>
      <feComposite in="a" in2="blot" operator="in"/>
    </filter>
    <filter id="soft" x="-20%" y="-20%" width="140%" height="140%"><feGaussianBlur stdDeviation="14"/></filter>
    <filter id="softer" x="-20%" y="-20%" width="140%" height="140%"><feGaussianBlur stdDeviation="6"/></filter>
    <filter id="wobble" x="-2%" y="-2%" width="104%" height="104%">
      <feTurbulence type="fractalNoise" baseFrequency="0.02" numOctaves="2" seed="6" result="w"/>
      <feDisplacementMap in="SourceGraphic" in2="w" scale="5" xChannelSelector="R" yChannelSelector="G"/>
    </filter>
    <pattern id="pad" width="7" height="7" patternUnits="userSpaceOnUse" patternTransform="rotate(45)">
      <rect width="7" height="7" fill="#a2286f"/><path d="M0 0H7" stroke="#8a1f5e" stroke-width="3"/>
    </pattern>
  </defs>

  <!-- The counter -->
  <rect width="1600" height="900" fill="#2a2742"/>
  <rect width="1600" height="900" filter="url(#counter)" opacity="0.12"/>

  <!-- The receipt: it comes in over the top edge and ends in the tear of the roll -->
  <g transform="rotate(-7 640 450)">
    <path d="M372 -80H908V812l-22 -18 -22 18 -23 -18 -22 18 -22 -18 -23 18 -22 -18 -22 18 -23 -18 -22 18 -22 -18 -23 18 -22 -18 -22 18 -23 -18 -22 18 -22 -18 -23 18 -22 -18 -22 18 -23 -18 -22 18 -22 -18 -22 18z" fill="#14122a" opacity="0.5" transform="translate(16 18)" filter="url(#soft)"/>
    <path d="M372 -80H908V812l-22 -18 -22 18 -23 -18 -22 18 -22 -18 -23 18 -22 -18 -22 18 -23 -18 -22 18 -22 -18 -23 18 -22 -18 -22 18 -23 -18 -22 18 -22 -18 -23 18 -22 -18 -22 18 -23 -18 -22 18 -22 -18 -22 18z" fill="#f3eee2"/>
    <!-- a soft fold across the paper -->
    <path d="M372 372H908V396H372z" fill="#e3dccb" opacity="0.6"/>

    <g filter="url(#thermal)" fill="#2c2b3a">
      <!-- what was handed over, what came back: lines of goods with no figures -->
      <path d="M420 36h440" stroke="#2c2b3a" stroke-width="4" stroke-dasharray="4 12"/>
      <rect x="420" y="70" width="230" height="16"/><rect x="790" y="70" width="70" height="16"/>
      <rect x="420" y="112" width="170" height="16"/><rect x="770" y="112" width="90" height="16"/>
      <rect x="420" y="154" width="280" height="16"/><rect x="800" y="154" width="60" height="16"/>
      <rect x="420" y="196" width="130" height="16"/><rect x="780" y="196" width="80" height="16"/>
      <rect x="420" y="238" width="210" height="16"/><rect x="760" y="238" width="100" height="16"/>
      <g stroke="#2c2b3a" stroke-width="3" stroke-dasharray="3 9" fill="none">
        <path d="M664 80h112M604 122h152M714 164h72M564 206h202M644 248h102"/>
      </g>
      <path d="M420 296h440" stroke="#2c2b3a" stroke-width="4" stroke-dasharray="4 12"/>
      <rect x="420" y="328" width="150" height="14"/><rect x="800" y="328" width="60" height="14"/>
      <path d="M420 430h440M420 440h440" stroke="#2c2b3a" stroke-width="4"/>
      <!-- the line that matters -->
      <text x="418" y="512" font-size="62" font-weight="700" letter-spacing="6">TOTAL</text>
      <rect x="668" y="466" width="192" height="50"/>
      <path d="M420 548h440M420 558h440" stroke="#2c2b3a" stroke-width="4"/>
      <!-- bar code -->
      <g>
        <rect x="470" y="718" width="8" height="66"/><rect x="486" y="718" width="3" height="66"/><rect x="496" y="718" width="12" height="66"/>
        <rect x="516" y="718" width="4" height="66"/><rect x="526" y="718" width="4" height="66"/><rect x="540" y="718" width="10" height="66"/>
        <rect x="558" y="718" width="3" height="66"/><rect x="568" y="718" width="14" height="66"/><rect x="590" y="718" width="5" height="66"/>
        <rect x="602" y="718" width="3" height="66"/><rect x="612" y="718" width="9" height="66"/><rect x="630" y="718" width="4" height="66"/>
        <rect x="642" y="718" width="13" height="66"/><rect x="662" y="718" width="3" height="66"/><rect x="672" y="718" width="6" height="66"/>
        <rect x="686" y="718" width="11" height="66"/><rect x="706" y="718" width="3" height="66"/><rect x="716" y="718" width="8" height="66"/>
        <rect x="732" y="718" width="4" height="66"/><rect x="744" y="718" width="12" height="66"/><rect x="764" y="718" width="3" height="66"/>
        <rect x="774" y="718" width="7" height="66"/><rect x="790" y="718" width="14" height="66"/>
      </g>
    </g>

    <!-- The stamp, struck across the total -->
    <g transform="rotate(-10 650 604)" filter="url(#stamped)" style="mix-blend-mode:multiply">
      <rect x="412" y="546" width="476" height="116" rx="14" fill="none" stroke="#b0307a" stroke-width="11"/>
      <rect x="428" y="562" width="444" height="84" rx="7" fill="none" stroke="#b0307a" stroke-width="4"/>
      <text x="650" y="625" text-anchor="middle" font-family="'Arial Black', Impact, 'Helvetica Neue', Arial, sans-serif" font-weight="900" font-size="56" letter-spacing="3" fill="#b0307a">SPECIAL ITEM</text>
    </g>
  </g>

  <!-- The ink pad, lid open -->
  <g transform="rotate(8 1290 250)" filter="url(#wobble)">
    <rect x="1126" y="150" width="330" height="214" rx="20" fill="#14122a" opacity="0.5" transform="translate(14 16)" filter="url(#softer)"/>
    <rect x="1126" y="150" width="330" height="214" rx="20" fill="#8d8aa6"/>
    <rect x="1140" y="164" width="302" height="186" rx="12" fill="#6f6c8a"/>
    <rect x="1154" y="178" width="274" height="158" rx="6" fill="url(#pad)"/>
    <rect x="1250" y="206" width="150" height="62" rx="6" fill="#7d1a55" opacity="0.55"/>
    <!-- the lid, hinged above -->
    <rect x="1126" y="-76" width="330" height="214" rx="20" fill="#a09dba"/>
    <rect x="1146" y="-56" width="290" height="174" rx="12" fill="none" stroke="#8d8aa6" stroke-width="6"/>
    <rect x="1180" y="136" width="46" height="18" rx="5" fill="#6f6c8a"/><rect x="1356" y="136" width="46" height="18" rx="5" fill="#6f6c8a"/>
  </g>

  <!-- The stamp itself, put down in a hurry, and the smudge it left -->
  <g filter="url(#stamped)" style="mix-blend-mode:screen" opacity="0.55">
    <rect x="1066" y="700" width="250" height="64" rx="8" fill="#b0307a" transform="rotate(-21 1190 730)"/>
  </g>
  <g transform="rotate(-21 1270 610)" filter="url(#wobble)">
    <rect x="1120" y="556" width="300" height="108" rx="12" fill="#14122a" opacity="0.55" transform="translate(16 20)" filter="url(#softer)"/>
    <rect x="1120" y="556" width="300" height="108" rx="12" fill="#c98d3a"/>
    <rect x="1120" y="556" width="300" height="20" rx="10" fill="#dba653"/>
    <rect x="1120" y="644" width="300" height="20" rx="10" fill="#a8722a"/>
    <path d="M1150 596h240M1150 622h240" stroke="#b47c30" stroke-width="4" stroke-linecap="round" opacity="0.7"/>
    <circle cx="1270" cy="610" r="58" fill="#14122a" opacity="0.35" transform="translate(10 12)" filter="url(#softer)"/>
    <circle cx="1270" cy="610" r="58" fill="#a8722a"/>
    <circle cx="1270" cy="610" r="48" fill="#c98d3a"/>
    <circle cx="1258" cy="598" r="26" fill="#dba653"/>
    <circle cx="1250" cy="590" r="9" fill="#f0c98a"/>
  </g>

  <!-- A pencil, for whoever adds it up -->
  <g transform="rotate(-62 190 560)" filter="url(#wobble)">
    <rect x="20" y="546" width="330" height="28" fill="#14122a" opacity="0.5" transform="translate(8 14)" filter="url(#softer)"/>
    <rect x="50" y="546" width="270" height="28" fill="#dba653"/>
    <rect x="50" y="546" width="270" height="9" fill="#f0c98a"/>
    <rect x="50" y="565" width="270" height="9" fill="#c98d3a"/>
    <path d="M320 546l52 14 -52 14z" fill="#f3eee2"/>
    <path d="M356 555.700l16 4.300 -16 4.300z" fill="#2c2b3a"/>
    <rect x="22" y="546" width="28" height="28" fill="#8d8aa6"/>
    <rect x="-6" y="546" width="28" height="28" rx="6" fill="#b0307a"/>
  </g>

  <rect width="1600" height="900" filter="url(#grain)" style="mix-blend-mode:multiply"/>
</svg>
